<?xml version="1.0" standalone="no"?>
<!DOCTYPE svg PUBLIC "-//W3C//DTD SVG 20010904//EN"
        "http://www.w3.org/TR/2001/REC-SVG-20010904/DTD/svg10.dtd">
<svg version="1.0" xmlns="http://www.w3.org/2000/svg"
     width="15.000000pt" height="15.000000pt" viewBox="0 0 150.000000 150.000000"
     preserveAspectRatio="xMidYMid meet">

    <g transform="translate(0.000000,150.000000) scale(0.100000,-0.100000)"
       fill="#ff6666" stroke="none">
        <path d="M535 1476 c-290 -93 -488 -338 -526 -647 -40 -331 151 -657 466 -793
68 -30 74 -31 256 -34 168 -3 191 -2 250 18 242 81 428 285 495 545 26 99 24
274 -4 378 -70 257 -264 459 -516 536 -101 31 -322 30 -421 -3z m390 -12 c70
-16 225 -91 274 -132 23 -20 32 -34 28 -46 -10 -24 -32 -20 -85 19 -291 209
-702 145 -914 -143 -226 -306 -162 -754 137 -968 128 -91 246 -129 400 -128
175 0 317 59 451 186 48 46 79 68 89 64 29 -11 14 -42 -53 -106 -132 -126
-280 -189 -462 -197 -137 -6 -227 13 -350 73 -80 40 -109 62 -185 138 -104
104 -161 204 -195 340 -25 100 -27 262 -4 355 98 397 480 637 869 545z m34
-125 c225 -78 402 -312 405 -538 1 -69 -1 -76 -18 -76 -17 0 -22 12 -32 85
-22 154 -82 271 -188 367 -89 82 -236 143 -343 143 -44 0 -59 11 -49 37 5 13
19 15 84 10 42 -3 106 -16 141 -28z m-409 -38 c0 -24 -25 -34 -40 -16 -15 18
-5 35 21 35 12 0 19 -7 19 -19z m-110 -57 c0 -7 -31 -44 -68 -82 -186 -186
-225 -486 -91 -705 33 -55 36 -72 13 -81 -24 -9 -38 6 -78 87 -53 108 -69 190
-63 322 6 126 28 200 85 293 80 131 202 230 202 166z m335 -4 c0 -23 -4 -26
-60 -32 -116 -13 -202 -56 -283 -142 -133 -141 -166 -349 -81 -523 87 -181
287 -288 475 -256 216 37 371 215 387 443 1 27 7 36 23 38 30 4 35 -18 24
-101 -24 -167 -138 -319 -296 -394 -70 -33 -86 -37 -183 -41 -117 -5 -189 12
-280 66 -113 66 -213 207 -240 340 -48 232 68 472 279 575 72 35 156 57 210
54 20 -2 25 -7 25 -27z m503 7 c4 -20 -25 -34 -40 -19 -15 15 -1 44 19 40 10
-2 19 -11 21 -21z m-357 -139 c82 -39 134 -89 175 -173 20 -41 34 -81 31 -89
-5 -13 -23 -16 -81 -16 -73 0 -76 1 -90 29 -42 79 -131 113 -287 109 l-104 -3
0 -220 0 -220 59 -3 c40 -2 62 1 67 10 7 10 11 10 21 0 15 -15 70 -16 122 -1
51 14 118 82 134 137 l13 42 79 0 c93 0 92 2 56 -101 -44 -126 -125 -210 -234
-245 -82 -25 -221 -17 -294 19 -69 34 -151 119 -186 194 -24 51 -27 70 -27
163 0 97 2 110 32 172 51 108 149 191 257 219 17 5 70 7 117 5 66 -3 99 -9
140 -28z m-63 -189 c152 -74 124 -326 -41 -367 -74 -19 -77 -18 -77 32 0 43 1
44 38 50 51 8 83 43 89 99 10 87 -38 131 -138 125 l-54 -3 -3 -152 -3 -153
-39 0 -40 0 0 195 0 195 112 0 c93 0 119 -3 156 -21z m502 -288 c0 -93 -79
-249 -175 -346 -119 -120 -258 -178 -427 -179 -100 -1 -126 8 -115 38 5 13 24
16 100 16 169 0 288 48 402 164 79 79 126 161 151 257 9 35 20 69 26 76 15 19
38 3 38 -26z m-769 -485 c-16 -19 -41 -10 -41 14 0 24 21 31 39 14 11 -10 12
-16 2 -28z"/>
    </g>
</svg>
